<svg width="32" height="32" viewBox="0 0 32 32" fill="none" xmlns="http://www.w3.org/2000/svg">
<g clip-path="url(#clip0_108_17)">
<path d="M24.8762 4.98458C24.8762 5.17344 24.8012 5.35456 24.6675 5.4881C24.534 5.62164 24.3528 5.69667 24.1638 5.69667C23.2192 5.69667 22.3133 6.07178 21.6454 6.73952C20.9774 7.40717 20.6022 8.31283 20.6022 9.25709C20.6022 9.44595 20.5271 9.62707 20.3935 9.76058C20.2599 9.89414 20.0787 9.96915 19.8898 9.96915C19.7009 9.96915 19.5197 9.89414 19.3861 9.76058C19.2525 9.62707 19.1775 9.44595 19.1775 9.25709C19.1775 8.31283 18.8022 7.40717 18.1343 6.73952C17.4663 6.07178 16.5604 5.69667 15.6158 5.69667C15.4269 5.69667 15.2457 5.62164 15.1121 5.4881C14.9785 5.35456 14.9034 5.17344 14.9034 4.98458C14.9034 4.79573 14.9785 4.6146 15.1121 4.48107C15.2457 4.34753 15.4269 4.2725 15.6158 4.2725C16.5604 4.2725 17.4663 3.89739 18.1343 3.22968C18.8022 2.56197 19.1775 1.65636 19.1775 0.712083C19.1775 0.523228 19.2525 0.342106 19.3861 0.208564C19.5197 0.0750227 19.7009 0 19.8898 0C20.0787 0 20.2599 0.0750227 20.3935 0.208564C20.5271 0.342106 20.6022 0.523228 20.6022 0.712083C20.6022 1.65636 20.9774 2.56197 21.6454 3.22968C22.3133 3.89739 23.2192 4.2725 24.1638 4.2725C24.3528 4.2725 24.534 4.34753 24.6675 4.48107C24.8012 4.6146 24.8762 4.79573 24.8762 4.98458Z" fill="url(#paint0_linear_108_17)"/>
<path d="M32 9.24806C32 9.40928 31.9359 9.5639 31.8219 9.67789C31.7079 9.79187 31.5532 9.85593 31.3919 9.85593C30.5856 9.85593 29.8123 10.1761 29.2421 10.7461C28.6719 11.3161 28.3516 12.0891 28.3516 12.8952C28.3516 13.0564 28.2876 13.211 28.1735 13.325C28.0595 13.439 27.9048 13.503 27.7436 13.503C27.5823 13.503 27.4277 13.439 27.3136 13.325C27.1996 13.211 27.1355 13.0564 27.1355 12.8952C27.1355 12.0891 26.8152 11.3161 26.245 10.7461C25.6748 10.1761 24.9015 9.85593 24.0952 9.85593C23.9339 9.85593 23.7793 9.79187 23.6652 9.67789C23.5512 9.5639 23.4871 9.40928 23.4871 9.24806C23.4871 9.08685 23.5512 8.93229 23.6652 8.8183C23.7793 8.70426 23.9339 8.64026 24.0952 8.64026C24.9015 8.64026 25.6748 8.32006 26.245 7.75008C26.8152 7.1801 27.1355 6.40704 27.1355 5.60101C27.1355 5.4398 27.1996 5.2852 27.3136 5.1712C27.4277 5.05721 27.5823 4.99316 27.7436 4.99316C27.9048 4.99316 28.0595 5.05721 28.1735 5.1712C28.2876 5.2852 28.3516 5.4398 28.3516 5.60101C28.3516 6.40704 28.6719 7.1801 29.2421 7.75008C29.8123 8.32006 30.5856 8.64026 31.3919 8.64026C31.5532 8.64026 31.7079 8.70426 31.8219 8.8183C31.9359 8.93229 32 9.08685 32 9.24806Z" fill="url(#paint1_linear_108_17)"/>
<path d="M25.3161 14.3118C25.3161 14.433 25.2679 14.5493 25.1821 14.635C25.0964 14.7208 24.9801 14.7689 24.8587 14.7689C24.2523 14.7689 23.6708 15.0097 23.242 15.4384C22.8132 15.867 22.5723 16.4484 22.5723 17.0546C22.5723 17.1759 22.5241 17.2922 22.4383 17.3779C22.3526 17.4636 22.2362 17.5118 22.1149 17.5118C21.9937 17.5118 21.8774 17.4636 21.7916 17.3779C21.7058 17.2922 21.6577 17.1759 21.6577 17.0546C21.6577 16.4484 21.4168 15.867 20.988 15.4384C20.5592 15.0097 19.9775 14.7689 19.3711 14.7689C19.2498 14.7689 19.1335 14.7208 19.0477 14.635C18.962 14.5493 18.9138 14.433 18.9138 14.3118C18.9138 14.1905 18.962 14.0742 19.0477 13.9886C19.1335 13.9028 19.2498 13.8547 19.3711 13.8547C19.9775 13.8547 20.5592 13.6138 20.988 13.1852C21.4168 12.7566 21.6577 12.1752 21.6577 11.569C21.6577 11.4477 21.7058 11.3314 21.7916 11.2457C21.8774 11.1599 21.9937 11.1118 22.1149 11.1118C22.2362 11.1118 22.3526 11.1599 22.4383 11.2457C22.5241 11.3314 22.5723 11.4477 22.5723 11.569C22.5723 12.1752 22.8132 12.7566 23.242 13.1852C23.6708 13.6138 24.2523 13.8547 24.8587 13.8547C24.9801 13.8547 25.0964 13.9028 25.1821 13.9886C25.2679 14.0742 25.3161 14.1905 25.3161 14.3118Z" fill="url(#paint2_linear_108_17)"/>
<path d="M14.2168 16.2286C14.2168 15.4715 13.6031 14.8572 12.8458 14.857C12.0883 14.857 11.4737 15.4714 11.4737 16.2286C11.4738 16.6995 11.6902 17.6094 12.0899 18.4106C12.2847 18.801 12.4897 19.0958 12.6716 19.2766C12.7535 19.358 12.8119 19.3966 12.8447 19.415C12.8773 19.3968 12.9361 19.3587 13.0188 19.2766C13.2008 19.0959 13.4057 18.801 13.6005 18.4106C14.0002 17.6094 14.2166 16.6995 14.2168 16.2286ZM16.5034 16.2286C16.5032 17.1463 16.1573 18.4078 15.647 19.4306C15.3869 19.9519 15.0494 20.4817 14.6299 20.8983C14.2187 21.3065 13.6147 21.7139 12.8458 21.7141C12.0766 21.7141 11.4719 21.3066 11.0605 20.8983C10.641 20.4817 10.3035 19.9519 10.0435 19.4306C9.53312 18.4078 9.18726 17.1463 9.18713 16.2286C9.18713 14.209 10.8254 12.5713 12.8458 12.5713C14.8659 12.5715 16.5034 14.2092 16.5034 16.2286Z" fill="url(#paint3_linear_108_17)"/>
<path d="M17.1898 29.7143V28.5715C17.1898 27.4184 16.7238 26.6163 15.9795 26.067C15.1958 25.4887 14.028 25.1429 12.6166 25.1429C11.2054 25.1429 10.0376 25.4887 9.25389 26.067C8.50951 26.6163 8.04359 27.4184 8.04359 28.5715C8.04359 29.2026 7.53178 29.7143 6.90036 29.7143C6.26893 29.7143 5.75708 29.2026 5.75708 28.5715C5.75708 26.6883 6.57082 25.2051 7.89511 24.2277C9.18036 23.2794 10.8709 22.8572 12.6166 22.8572C14.3624 22.8572 16.053 23.2794 17.3382 24.2277C18.6625 25.2051 19.4763 26.6883 19.4763 28.5715V29.7143C19.4763 30.3455 18.9644 30.8572 18.333 30.8572C17.7016 30.8572 17.1898 30.3455 17.1898 29.7143Z" fill="url(#paint4_linear_108_17)"/>
<path d="M13.818 31.9999C6.20678 31.9999 0.0978855 25.8193 0.0407425 18.2009C-0.00213334 12.4846 2.69371 9.78522 4.7157 7.76071C6.73767 5.73616 10.2935 4.85594 10.2935 4.85594L10.4108 4.84255C10.9889 4.80655 11.5123 5.21311 11.6087 5.79679C11.7052 6.38052 11.3405 6.93409 10.7814 7.08583L10.6664 7.1104L9.68615 7.4233C6.06364 8.773 2.32727 12.3495 2.32727 18.2009C2.32727 24.5617 7.47411 29.7142 13.818 29.7142C19.6307 29.7142 24.4394 25.3878 25.2026 19.7701C25.2876 19.1446 25.8643 18.7063 26.4899 18.7913C27.1153 18.8763 27.5537 19.4518 27.4691 20.077C26.5546 26.8088 20.7937 31.9999 13.818 31.9999Z" fill="url(#paint5_linear_108_17)"/>
</g>
<defs>
<linearGradient id="paint0_linear_108_17" x1="16.9932" y1="8.19936" x2="27.5053" y2="-2.0009" gradientUnits="userSpaceOnUse">
<stop stop-color="#0077FF"/>
<stop offset="0.764423" stop-color="#FF05E6"/>
</linearGradient>
<linearGradient id="paint1_linear_108_17" x1="25.2709" y1="11.9923" x2="34.2442" y2="3.28516" gradientUnits="userSpaceOnUse">
<stop stop-color="#0077FF"/>
<stop offset="0.764423" stop-color="#FF05E6"/>
</linearGradient>
<linearGradient id="paint2_linear_108_17" x1="20.2554" y1="16.3756" x2="27.0039" y2="9.82727" gradientUnits="userSpaceOnUse">
<stop stop-color="#0077FF"/>
<stop offset="0.764423" stop-color="#FF05E6"/>
</linearGradient>
<linearGradient id="paint3_linear_108_17" x1="10.7202" y1="20.091" x2="20.0639" y2="12.8385" gradientUnits="userSpaceOnUse">
<stop stop-color="#0077FF"/>
<stop offset="0.764423" stop-color="#FF05E6"/>
</linearGradient>
<linearGradient id="paint4_linear_108_17" x1="5.79046" y1="27.1306" x2="34.7128" y2="-0.934079" gradientUnits="userSpaceOnUse">
<stop stop-color="#0077FF"/>
<stop offset="0.764423" stop-color="#FF05E6"/>
</linearGradient>
<linearGradient id="paint5_linear_108_17" x1="5.79045" y1="27.1306" x2="34.7128" y2="-0.934162" gradientUnits="userSpaceOnUse">
<stop stop-color="#0077FF"/>
<stop offset="0.764423" stop-color="#FF05E6"/>
</linearGradient>
<clipPath id="clip0_108_17">
<rect width="32" height="32" fill="white"/>
</clipPath>
</defs>
</svg>
