<svg width="32" height="32" viewBox="0 0 32 32" fill="none" xmlns="http://www.w3.org/2000/svg">
<g clip-path="url(#clip0_105_52)">
<mask id="mask0_105_52" style="mask-type:luminance" maskUnits="userSpaceOnUse" x="0" y="0" width="32" height="32">
<path d="M32 0H0V32H32V0Z" fill="white"/>
</mask>
<g mask="url(#mask0_105_52)">
<path d="M24.8263 4.98459C24.8263 5.17345 24.7513 5.35457 24.6177 5.48811C24.4842 5.62165 24.3031 5.69668 24.1143 5.69668C23.1699 5.69668 22.2643 6.07179 21.5967 6.7395C20.9289 7.40721 20.5538 8.31282 20.5538 9.25709C20.5538 9.44595 20.4787 9.62708 20.3452 9.76061C20.2116 9.89415 20.0306 9.96918 19.8417 9.96918C19.6529 9.96918 19.4717 9.89415 19.3381 9.76061C19.2047 9.62708 19.1296 9.44595 19.1296 9.25709C19.1296 8.31282 18.7545 7.40721 18.0868 6.7395C17.4191 6.07179 16.5135 5.69668 15.5692 5.69668C15.3803 5.69668 15.1992 5.62165 15.0657 5.48811C14.9321 5.35457 14.8571 5.17345 14.8571 4.98459C14.8571 4.79573 14.9321 4.61461 15.0657 4.48107C15.1992 4.34753 15.3803 4.27251 15.5692 4.27251C16.5135 4.27251 17.4191 3.89739 18.0868 3.22969C18.7545 2.56197 19.1296 1.65637 19.1296 0.712085C19.1296 0.523228 19.2047 0.342107 19.3381 0.208565C19.4717 0.075023 19.6529 0 19.8417 0C20.0306 0 20.2116 0.075023 20.3452 0.208565C20.4787 0.342107 20.5538 0.523228 20.5538 0.712085C20.5538 1.65637 20.9289 2.56197 21.5967 3.22969C22.2643 3.89739 23.1699 4.27251 24.1143 4.27251C24.3031 4.27251 24.4842 4.34753 24.6177 4.48107C24.7513 4.61461 24.8263 4.79573 24.8263 4.98459Z" fill="#0077FF"/>
<path d="M31.9473 9.24809C31.9473 9.4093 31.8833 9.56391 31.7693 9.67791C31.6553 9.7919 31.5007 9.85594 31.3396 9.85594C30.5335 9.85594 29.7605 10.1761 29.1904 10.7461C28.6205 11.3161 28.3002 12.0892 28.3002 12.8952C28.3002 13.0564 28.2362 13.211 28.1223 13.3249C28.0082 13.439 27.8536 13.503 27.6925 13.503C27.5312 13.503 27.3766 13.439 27.2626 13.3249C27.1486 13.211 27.0846 13.0564 27.0846 12.8952C27.0846 12.0892 26.7644 11.3161 26.1944 10.7461C25.6245 10.1761 24.8514 9.85594 24.0454 9.85594C23.8841 9.85594 23.7295 9.7919 23.6156 9.67791C23.5015 9.56391 23.4375 9.4093 23.4375 9.24809C23.4375 9.08688 23.5015 8.93227 23.6156 8.81827C23.7295 8.70428 23.8841 8.64024 24.0454 8.64024C24.8514 8.64024 25.6245 8.32004 26.1944 7.75008C26.7644 7.1801 27.0846 6.40706 27.0846 5.60102C27.0846 5.4398 27.1486 5.2852 27.2626 5.1712C27.3766 5.05721 27.5312 4.99316 27.6925 4.99316C27.8536 4.99316 28.0082 5.05721 28.1223 5.1712C28.2362 5.2852 28.3002 5.4398 28.3002 5.60102C28.3002 6.40706 28.6205 7.1801 29.1904 7.75008C29.7605 8.32004 30.5335 8.64024 31.3396 8.64024C31.5007 8.64024 31.6553 8.70428 31.7693 8.81827C31.8833 8.93227 31.9473 9.08688 31.9473 9.24809Z" fill="#0077FF"/>
<path d="M25.266 14.3118C25.266 14.4331 25.2178 14.5493 25.1321 14.635C25.0464 14.7207 24.9301 14.769 24.8089 14.769C24.2027 14.769 23.6213 15.0098 23.1927 15.4384C22.764 15.867 22.5232 16.4484 22.5232 17.0547C22.5232 17.1759 22.4751 17.2922 22.3892 17.3779C22.3035 17.4636 22.1873 17.5118 22.066 17.5118C21.9448 17.5118 21.8285 17.4636 21.7428 17.3779C21.657 17.2922 21.6089 17.1759 21.6089 17.0547C21.6089 16.4484 21.3681 15.867 20.9394 15.4384C20.5107 15.0098 19.9293 14.769 19.3232 14.769C19.2019 14.769 19.0857 14.7207 19 14.635C18.9143 14.5493 18.866 14.4331 18.866 14.3118C18.866 14.1906 18.9143 14.0743 19 13.9885C19.0857 13.9028 19.2019 13.8547 19.3232 13.8547C19.9293 13.8547 20.5107 13.6139 20.9394 13.1852C21.3681 12.7565 21.6089 12.1751 21.6089 11.569C21.6089 11.4477 21.657 11.3314 21.7428 11.2457C21.8285 11.16 21.9448 11.1118 22.066 11.1118C22.1873 11.1118 22.3035 11.16 22.3892 11.2457C22.4751 11.3314 22.5232 11.4477 22.5232 11.569C22.5232 12.1751 22.764 12.7565 23.1927 13.1852C23.6213 13.6139 24.2027 13.8547 24.8089 13.8547C24.9301 13.8547 25.0464 13.9028 25.1321 13.9885C25.2178 14.0743 25.266 14.1906 25.266 14.3118Z" fill="#0077FF"/>
<path d="M14.1708 16.2287C14.1708 15.4715 13.5573 14.8572 12.8003 14.857C12.043 14.857 11.4286 15.4714 11.4286 16.2287C11.4287 16.6995 11.6452 17.6095 12.0447 18.4106C12.2395 18.801 12.4443 19.0959 12.6262 19.2767C12.708 19.3579 12.7663 19.3965 12.7991 19.4151C12.8318 19.3968 12.8905 19.3587 12.9733 19.2767C13.1551 19.0959 13.3599 18.8011 13.5548 18.4106C13.9542 17.6095 14.1707 16.6995 14.1708 16.2287ZM16.4565 16.2287C16.4564 17.1463 16.1107 18.4077 15.6005 19.4307C15.3405 19.952 15.0031 20.4817 14.5837 20.8983C14.1727 21.3065 13.5689 21.7139 12.8003 21.7141C12.0313 21.7141 11.4268 21.3066 11.0156 20.8983C10.5963 20.4817 10.2589 19.952 9.99891 19.4307C9.48878 18.4077 9.14301 17.1463 9.14288 16.2287C9.14288 14.209 10.7806 12.5713 12.8003 12.5713C14.8197 12.5715 16.4565 14.2092 16.4565 16.2287Z" fill="#0077FF"/>
<path d="M17.1429 29.7141V28.5712C17.1429 27.4182 16.6772 26.616 15.933 26.0668C15.1496 25.4885 13.9822 25.1426 12.5714 25.1426C11.1606 25.1426 9.99324 25.4885 9.20983 26.0668C8.46576 26.616 8.00001 27.4182 8.00001 28.5712C8.00001 29.2024 7.48833 29.7141 6.85715 29.7141C6.22597 29.7141 5.71429 29.2024 5.71429 28.5712C5.71429 26.6881 6.52772 25.2048 7.85157 24.2274C9.13632 23.2791 10.8263 22.8569 12.5714 22.8569C14.3166 22.8569 16.0065 23.2791 17.2913 24.2274C18.6152 25.2048 19.4286 26.6881 19.4286 28.5712V29.7141C19.4286 30.3453 18.9169 30.8569 18.2857 30.8569C17.6545 30.8569 17.1429 30.3453 17.1429 29.7141Z" fill="#0077FF"/>
<path d="M13.7723 31.9998C6.16383 31.9998 -9.08513e-08 25.8194 0 18.2008C0.000117815 11.5649 4.67501 6.02206 10.9085 4.70074L11.5157 4.5869L11.6328 4.5735C12.2107 4.53751 12.7339 4.94407 12.8304 5.52774C12.9267 6.11148 12.5623 6.66503 12.0033 6.81681L11.8883 6.84137L11.3817 6.93734C6.18704 8.03906 2.28583 12.6629 2.28571 18.2008C2.28571 24.5616 7.43072 29.7141 13.7723 29.7141C19.583 29.7141 24.3899 25.3876 25.1529 19.7699C25.2378 19.1445 25.8143 18.7062 26.4398 18.7912C27.0649 18.8762 27.5031 19.4517 27.4185 20.0769C26.5043 26.8088 20.7456 31.9998 13.7723 31.9998Z" fill="#0077FF"/>
</g>
</g>
<defs>
<clipPath id="clip0_105_52">
<rect width="32" height="32" fill="white"/>
</clipPath>
</defs>
</svg>
