<svg width="153" height="32" viewBox="0 0 153 32" fill="none" xmlns="http://www.w3.org/2000/svg">
<g clip-path="url(#clip0_105_152)">
<path d="M45.184 28.24C43.776 28.24 42.576 27.976 41.584 27.448C40.608 26.92 39.856 26.176 39.328 25.216C38.816 24.256 38.528 23.128 38.464 21.832C38.448 21.128 38.44 20.384 38.44 19.6C38.44 18.8 38.448 18.04 38.464 17.32C38.528 16.024 38.816 14.904 39.328 13.96C39.856 13.016 40.616 12.28 41.608 11.752C42.6 11.224 43.792 10.96 45.184 10.96C46.32 10.96 47.304 11.12 48.136 11.44C48.968 11.76 49.648 12.168 50.176 12.664C50.72 13.144 51.12 13.648 51.376 14.176C51.648 14.704 51.792 15.168 51.808 15.568C51.824 15.712 51.784 15.832 51.688 15.928C51.592 16.008 51.464 16.048 51.304 16.048H49.888C49.728 16.048 49.608 16.016 49.528 15.952C49.464 15.888 49.4 15.776 49.336 15.616C49.192 15.2 48.952 14.792 48.616 14.392C48.296 13.992 47.856 13.664 47.296 13.408C46.752 13.136 46.048 13 45.184 13C43.92 13 42.896 13.344 42.112 14.032C41.344 14.72 40.928 15.856 40.864 17.44C40.816 18.864 40.816 20.288 40.864 21.712C40.928 23.312 41.352 24.464 42.136 25.168C42.92 25.856 43.944 26.2 45.208 26.2C46.056 26.2 46.808 26.048 47.464 25.744C48.136 25.424 48.664 24.936 49.048 24.28C49.432 23.624 49.624 22.792 49.624 21.784V20.776H46.024C45.864 20.776 45.728 20.728 45.616 20.632C45.52 20.52 45.472 20.376 45.472 20.2V19.432C45.472 19.256 45.52 19.12 45.616 19.024C45.728 18.912 45.864 18.856 46.024 18.856H51.448C51.624 18.856 51.76 18.912 51.856 19.024C51.952 19.12 52 19.256 52 19.432V21.736C52 23.048 51.728 24.192 51.184 25.168C50.656 26.144 49.88 26.904 48.856 27.448C47.832 27.976 46.608 28.24 45.184 28.24ZM60.0799 28.24C58.4319 28.24 57.1199 27.736 56.1439 26.728C55.1679 25.704 54.6319 24.312 54.5359 22.552C54.5199 22.344 54.5119 22.08 54.5119 21.76C54.5119 21.424 54.5199 21.152 54.5359 20.944C54.5999 19.808 54.8639 18.816 55.3279 17.968C55.7919 17.104 56.4239 16.44 57.2239 15.976C58.0399 15.512 58.9919 15.28 60.0799 15.28C61.2959 15.28 62.3119 15.536 63.1279 16.048C63.9599 16.56 64.5919 17.288 65.0239 18.232C65.4559 19.176 65.6719 20.28 65.6719 21.544V21.952C65.6719 22.128 65.6159 22.264 65.5039 22.36C65.4079 22.456 65.2799 22.504 65.1199 22.504H56.8159C56.8159 22.52 56.8159 22.552 56.8159 22.6C56.8159 22.648 56.8159 22.688 56.8159 22.72C56.8479 23.376 56.9919 23.992 57.2479 24.568C57.5039 25.128 57.8719 25.584 58.3519 25.936C58.8319 26.288 59.4079 26.464 60.0799 26.464C60.6559 26.464 61.1359 26.376 61.5199 26.2C61.9039 26.024 62.2159 25.832 62.4559 25.624C62.6959 25.4 62.8559 25.232 62.9359 25.12C63.0799 24.912 63.1919 24.792 63.2719 24.76C63.3519 24.712 63.4799 24.688 63.6559 24.688H64.8079C64.9679 24.688 65.0959 24.736 65.1919 24.832C65.3039 24.912 65.3519 25.032 65.3359 25.192C65.3199 25.432 65.1919 25.728 64.9519 26.08C64.7119 26.416 64.3679 26.752 63.9199 27.088C63.4719 27.424 62.9279 27.704 62.2879 27.928C61.6479 28.136 60.9119 28.24 60.0799 28.24ZM56.8159 20.848H63.3919V20.776C63.3919 20.056 63.2559 19.416 62.9839 18.856C62.7279 18.296 62.3519 17.856 61.8559 17.536C61.3599 17.2 60.7679 17.032 60.0799 17.032C59.3919 17.032 58.7999 17.2 58.3039 17.536C57.8239 17.856 57.4559 18.296 57.1999 18.856C56.9439 19.416 56.8159 20.056 56.8159 20.776V20.848ZM73.3433 28C72.4473 28 71.7193 27.832 71.1593 27.496C70.5993 27.144 70.1913 26.656 69.9353 26.032C69.6793 25.392 69.5513 24.64 69.5513 23.776V17.44H67.6793C67.5193 17.44 67.3833 17.392 67.2713 17.296C67.1753 17.184 67.1273 17.048 67.1273 16.888V16.072C67.1273 15.912 67.1753 15.784 67.2713 15.688C67.3833 15.576 67.5193 15.52 67.6793 15.52H69.5513V11.512C69.5513 11.352 69.5993 11.224 69.6953 11.128C69.8073 11.016 69.9433 10.96 70.1033 10.96H71.2313C71.3913 10.96 71.5193 11.016 71.6153 11.128C71.7273 11.224 71.7833 11.352 71.7833 11.512V15.52H74.7593C74.9193 15.52 75.0473 15.576 75.1433 15.688C75.2553 15.784 75.3113 15.912 75.3113 16.072V16.888C75.3113 17.048 75.2553 17.184 75.1433 17.296C75.0473 17.392 74.9193 17.44 74.7593 17.44H71.7833V23.608C71.7833 24.36 71.9113 24.952 72.1673 25.384C72.4233 25.816 72.8793 26.032 73.5353 26.032H74.9993C75.1593 26.032 75.2873 26.088 75.3833 26.2C75.4953 26.296 75.5513 26.424 75.5513 26.584V27.448C75.5513 27.608 75.4953 27.744 75.3833 27.856C75.2873 27.952 75.1593 28 74.9993 28H73.3433ZM78.4463 28C78.2703 28 78.1263 27.944 78.0143 27.832C77.9023 27.72 77.8463 27.576 77.8463 27.4V11.8C77.8463 11.624 77.9023 11.48 78.0143 11.368C78.1263 11.256 78.2703 11.2 78.4463 11.2H84.9983C86.2943 11.2 87.4143 11.4 88.3583 11.8C89.3183 12.2 90.0623 12.808 90.5903 13.624C91.1343 14.424 91.4063 15.424 91.4063 16.624C91.4063 17.84 91.1343 18.848 90.5903 19.648C90.0623 20.432 89.3183 21.016 88.3583 21.4C87.4143 21.784 86.2943 21.976 84.9983 21.976H81.7823V27.4C81.7823 27.576 81.7263 27.72 81.6143 27.832C81.5023 27.944 81.3583 28 81.1823 28H78.4463ZM81.7103 19H84.8783C85.6943 19 86.3263 18.8 86.7743 18.4C87.2383 18 87.4703 17.4 87.4703 16.6C87.4703 15.896 87.2623 15.32 86.8463 14.872C86.4463 14.424 85.7903 14.2 84.8783 14.2H81.7103V19ZM94.1661 28C94.0061 28 93.8701 27.944 93.7581 27.832C93.6461 27.72 93.5901 27.576 93.5901 27.4V16.12C93.5901 15.96 93.6461 15.824 93.7581 15.712C93.8701 15.584 94.0061 15.52 94.1661 15.52H96.5181C96.6781 15.52 96.8141 15.584 96.9261 15.712C97.0541 15.824 97.1181 15.96 97.1181 16.12V17.08C97.5181 16.584 98.0061 16.2 98.5821 15.928C99.1741 15.656 99.8541 15.52 100.622 15.52H101.654C101.814 15.52 101.95 15.576 102.062 15.688C102.174 15.8 102.23 15.944 102.23 16.12V18.184C102.23 18.36 102.174 18.504 102.062 18.616C101.95 18.728 101.814 18.784 101.654 18.784H99.5421C98.8381 18.784 98.2861 18.984 97.8861 19.384C97.4861 19.768 97.2861 20.32 97.2861 21.04V27.4C97.2861 27.576 97.2301 27.72 97.1181 27.832C97.0061 27.944 96.8621 28 96.6861 28H94.1661ZM109.591 28.24C108.263 28.24 107.151 28.024 106.255 27.592C105.359 27.144 104.671 26.512 104.191 25.696C103.727 24.88 103.471 23.928 103.423 22.84C103.407 22.52 103.399 22.16 103.399 21.76C103.399 21.344 103.407 20.984 103.423 20.68C103.471 19.576 103.743 18.624 104.239 17.824C104.735 17.008 105.431 16.384 106.327 15.952C107.223 15.504 108.311 15.28 109.591 15.28C110.855 15.28 111.935 15.504 112.831 15.952C113.727 16.384 114.423 17.008 114.919 17.824C115.415 18.624 115.687 19.576 115.735 20.68C115.767 20.984 115.783 21.344 115.783 21.76C115.783 22.16 115.767 22.52 115.735 22.84C115.687 23.928 115.423 24.88 114.943 25.696C114.479 26.512 113.799 27.144 112.903 27.592C112.007 28.024 110.903 28.24 109.591 28.24ZM109.591 25.6C110.375 25.6 110.967 25.36 111.367 24.88C111.767 24.384 111.983 23.664 112.015 22.72C112.031 22.48 112.039 22.16 112.039 21.76C112.039 21.36 112.031 21.04 112.015 20.8C111.983 19.872 111.767 19.16 111.367 18.664C110.967 18.168 110.375 17.92 109.591 17.92C108.807 17.92 108.207 18.168 107.791 18.664C107.391 19.16 107.175 19.872 107.143 20.8C107.127 21.04 107.119 21.36 107.119 21.76C107.119 22.16 107.127 22.48 107.143 22.72C107.175 23.664 107.391 24.384 107.791 24.88C108.207 25.36 108.807 25.6 109.591 25.6ZM120.144 28C119.968 28 119.824 27.944 119.712 27.832C119.6 27.72 119.544 27.576 119.544 27.4V18.352H117.672C117.496 18.352 117.352 18.296 117.24 18.184C117.128 18.072 117.072 17.928 117.072 17.752V16.12C117.072 15.944 117.128 15.8 117.24 15.688C117.352 15.576 117.496 15.52 117.672 15.52H119.544V14.656C119.544 13.632 119.736 12.792 120.12 12.136C120.504 11.48 121.064 11 121.8 10.696C122.536 10.392 123.44 10.24 124.512 10.24H130.032C130.192 10.24 130.328 10.296 130.44 10.408C130.552 10.52 130.608 10.664 130.608 10.84V12.472C130.608 12.648 130.552 12.792 130.44 12.904C130.328 13.016 130.192 13.072 130.032 13.072H124.656C124.064 13.072 123.648 13.216 123.408 13.504C123.184 13.792 123.072 14.216 123.072 14.776V15.52H130.032C130.192 15.52 130.328 15.576 130.44 15.688C130.552 15.8 130.608 15.944 130.608 16.12V27.4C130.608 27.576 130.552 27.72 130.44 27.832C130.328 27.944 130.192 28 130.032 28H127.68C127.504 28 127.36 27.944 127.248 27.832C127.136 27.72 127.08 27.576 127.08 27.4V18.352H123.072V27.4C123.072 27.576 123.016 27.72 122.904 27.832C122.792 27.944 122.656 28 122.496 28H120.144ZM134.221 28C134.045 28 133.901 27.944 133.789 27.832C133.677 27.72 133.621 27.576 133.621 27.4V11.56C133.621 11.384 133.677 11.24 133.789 11.128C133.901 11.016 134.045 10.96 134.221 10.96H136.621C136.781 10.96 136.917 11.016 137.029 11.128C137.141 11.24 137.197 11.384 137.197 11.56V27.4C137.197 27.576 137.141 27.72 137.029 27.832C136.917 27.944 136.781 28 136.621 28H134.221ZM145.799 28.24C143.959 28.24 142.495 27.728 141.407 26.704C140.335 25.68 139.767 24.192 139.703 22.24C139.703 22.112 139.703 21.944 139.703 21.736C139.703 21.512 139.703 21.336 139.703 21.208C139.767 19.976 140.047 18.92 140.543 18.04C141.039 17.144 141.735 16.464 142.631 16C143.527 15.52 144.575 15.28 145.775 15.28C147.119 15.28 148.239 15.56 149.135 16.12C150.047 16.664 150.727 17.416 151.175 18.376C151.639 19.32 151.871 20.408 151.871 21.64V22.192C151.871 22.352 151.807 22.488 151.679 22.6C151.567 22.712 151.431 22.768 151.271 22.768H143.423C143.423 22.784 143.423 22.816 143.423 22.864C143.423 22.896 143.423 22.928 143.423 22.96C143.439 23.472 143.535 23.944 143.711 24.376C143.903 24.792 144.167 25.128 144.503 25.384C144.855 25.64 145.271 25.768 145.751 25.768C146.151 25.768 146.479 25.712 146.735 25.6C146.991 25.488 147.199 25.352 147.359 25.192C147.535 25.032 147.663 24.896 147.743 24.784C147.887 24.624 147.999 24.528 148.079 24.496C148.175 24.448 148.319 24.424 148.511 24.424H151.007C151.167 24.424 151.295 24.472 151.391 24.568C151.503 24.648 151.551 24.768 151.535 24.928C151.519 25.184 151.383 25.504 151.127 25.888C150.887 26.256 150.527 26.624 150.047 26.992C149.567 27.344 148.967 27.64 148.247 27.88C147.543 28.12 146.727 28.24 145.799 28.24ZM143.423 20.584H148.127V20.536C148.127 19.96 148.031 19.464 147.839 19.048C147.663 18.616 147.399 18.28 147.047 18.04C146.695 17.8 146.271 17.68 145.775 17.68C145.279 17.68 144.855 17.8 144.503 18.04C144.151 18.28 143.879 18.616 143.687 19.048C143.511 19.464 143.423 19.96 143.423 20.536V20.584Z" fill="white"/>
<g clip-path="url(#clip1_105_152)">
<mask id="mask0_105_152" style="mask-type:luminance" maskUnits="userSpaceOnUse" x="0" y="0" width="32" height="32">
<path d="M32 0H0V32H32V0Z" fill="white"/>
</mask>
<g mask="url(#mask0_105_152)">
<path d="M24.8263 4.98459C24.8263 5.17345 24.7513 5.35457 24.6177 5.48811C24.4842 5.62165 24.3031 5.69668 24.1143 5.69668C23.1699 5.69668 22.2643 6.07179 21.5967 6.7395C20.9289 7.40721 20.5538 8.31282 20.5538 9.25709C20.5538 9.44595 20.4787 9.62708 20.3453 9.76061C20.2117 9.89415 20.0306 9.96918 19.8417 9.96918C19.6529 9.96918 19.4718 9.89415 19.3382 9.76061C19.2047 9.62708 19.1296 9.44595 19.1296 9.25709C19.1296 8.31282 18.7545 7.40721 18.0869 6.7395C17.4191 6.07179 16.5135 5.69668 15.5693 5.69668C15.3803 5.69668 15.1992 5.62165 15.0657 5.48811C14.9321 5.35457 14.8571 5.17345 14.8571 4.98459C14.8571 4.79573 14.9321 4.61461 15.0657 4.48107C15.1992 4.34753 15.3803 4.27251 15.5693 4.27251C16.5135 4.27251 17.4191 3.89739 18.0869 3.22969C18.7545 2.56197 19.1296 1.65637 19.1296 0.712085C19.1296 0.523228 19.2047 0.342107 19.3382 0.208565C19.4718 0.075023 19.6529 0 19.8417 0C20.0306 0 20.2117 0.075023 20.3453 0.208565C20.4787 0.342107 20.5538 0.523228 20.5538 0.712085C20.5538 1.65637 20.9289 2.56197 21.5967 3.22969C22.2643 3.89739 23.1699 4.27251 24.1143 4.27251C24.3031 4.27251 24.4842 4.34753 24.6177 4.48107C24.7513 4.61461 24.8263 4.79573 24.8263 4.98459Z" fill="#0077FF"/>
<path d="M31.9473 9.24809C31.9473 9.4093 31.8833 9.56391 31.7693 9.67791C31.6553 9.7919 31.5007 9.85594 31.3396 9.85594C30.5335 9.85594 29.7605 10.1761 29.1904 10.7461C28.6205 11.3161 28.3002 12.0892 28.3002 12.8952C28.3002 13.0564 28.2362 13.211 28.1223 13.3249C28.0082 13.439 27.8536 13.503 27.6925 13.503C27.5312 13.503 27.3766 13.439 27.2626 13.3249C27.1486 13.211 27.0846 13.0564 27.0846 12.8952C27.0846 12.0892 26.7644 11.3161 26.1944 10.7461C25.6245 10.1761 24.8514 9.85594 24.0454 9.85594C23.8841 9.85594 23.7295 9.7919 23.6156 9.67791C23.5015 9.56391 23.4375 9.4093 23.4375 9.24809C23.4375 9.08688 23.5015 8.93227 23.6156 8.81827C23.7295 8.70428 23.8841 8.64024 24.0454 8.64024C24.8514 8.64024 25.6245 8.32004 26.1944 7.75008C26.7644 7.1801 27.0846 6.40706 27.0846 5.60102C27.0846 5.4398 27.1486 5.2852 27.2626 5.1712C27.3766 5.05721 27.5312 4.99316 27.6925 4.99316C27.8536 4.99316 28.0082 5.05721 28.1223 5.1712C28.2362 5.2852 28.3002 5.4398 28.3002 5.60102C28.3002 6.40706 28.6205 7.1801 29.1904 7.75008C29.7605 8.32004 30.5335 8.64024 31.3396 8.64024C31.5007 8.64024 31.6553 8.70428 31.7693 8.81827C31.8833 8.93227 31.9473 9.08688 31.9473 9.24809Z" fill="#0077FF"/>
<path d="M25.2661 14.3118C25.2661 14.4331 25.2178 14.5493 25.1321 14.635C25.0464 14.7207 24.9302 14.769 24.8089 14.769C24.2027 14.769 23.6214 15.0098 23.1927 15.4384C22.764 15.867 22.5232 16.4484 22.5232 17.0547C22.5232 17.1759 22.4751 17.2922 22.3893 17.3779C22.3035 17.4636 22.1873 17.5118 22.0661 17.5118C21.9448 17.5118 21.8286 17.4636 21.7429 17.3779C21.657 17.2922 21.6089 17.1759 21.6089 17.0547C21.6089 16.4484 21.3681 15.867 20.9394 15.4384C20.5107 15.0098 19.9294 14.769 19.3232 14.769C19.2019 14.769 19.0857 14.7207 19 14.635C18.9143 14.5493 18.8661 14.4331 18.8661 14.3118C18.8661 14.1906 18.9143 14.0743 19 13.9885C19.0857 13.9028 19.2019 13.8547 19.3232 13.8547C19.9294 13.8547 20.5107 13.6139 20.9394 13.1852C21.3681 12.7565 21.6089 12.1751 21.6089 11.569C21.6089 11.4477 21.657 11.3314 21.7429 11.2457C21.8286 11.16 21.9448 11.1118 22.0661 11.1118C22.1873 11.1118 22.3035 11.16 22.3893 11.2457C22.4751 11.3314 22.5232 11.4477 22.5232 11.569C22.5232 12.1751 22.764 12.7565 23.1927 13.1852C23.6214 13.6139 24.2027 13.8547 24.8089 13.8547C24.9302 13.8547 25.0464 13.9028 25.1321 13.9885C25.2178 14.0743 25.2661 14.1906 25.2661 14.3118Z" fill="#0077FF"/>
<path d="M14.1707 16.2287C14.1707 15.4715 13.5573 14.8572 12.8002 14.857C12.043 14.857 11.4286 15.4714 11.4286 16.2287C11.4287 16.6995 11.6451 17.6095 12.0447 18.4106C12.2394 18.801 12.4442 19.0959 12.6262 19.2767C12.708 19.3579 12.7663 19.3965 12.7991 19.4151C12.8318 19.3968 12.8905 19.3587 12.9733 19.2767C13.1551 19.0959 13.3599 18.8011 13.5547 18.4106C13.9542 17.6095 14.1706 16.6995 14.1707 16.2287ZM16.4565 16.2287C16.4563 17.1463 16.1106 18.4077 15.6005 19.4307C15.3405 19.952 15.0031 20.4817 14.5837 20.8983C14.1727 21.3065 13.5689 21.7139 12.8002 21.7141C12.0313 21.7141 11.4268 21.3066 11.0156 20.8983C10.5963 20.4817 10.2589 19.952 9.99888 19.4307C9.48875 18.4077 9.14298 17.1463 9.14285 16.2287C9.14285 14.209 10.7806 12.5713 12.8002 12.5713C14.8197 12.5715 16.4565 14.2092 16.4565 16.2287Z" fill="#0077FF"/>
<path d="M17.1429 29.7141V28.5712C17.1429 27.4182 16.6772 26.616 15.933 26.0668C15.1496 25.4885 13.9822 25.1426 12.5714 25.1426C11.1606 25.1426 9.99324 25.4885 9.20983 26.0668C8.46576 26.616 8.00001 27.4182 8.00001 28.5712C8.00001 29.2024 7.48833 29.7141 6.85715 29.7141C6.22597 29.7141 5.71429 29.2024 5.71429 28.5712C5.71429 26.6881 6.52772 25.2048 7.85157 24.2274C9.13632 23.2791 10.8263 22.8569 12.5714 22.8569C14.3166 22.8569 16.0065 23.2791 17.2913 24.2274C18.6152 25.2048 19.4286 26.6881 19.4286 28.5712V29.7141C19.4286 30.3453 18.9169 30.8569 18.2857 30.8569C17.6545 30.8569 17.1429 30.3453 17.1429 29.7141Z" fill="#0077FF"/>
<path d="M13.7723 31.9998C6.16383 31.9998 -9.08513e-08 25.8194 0 18.2008C0.000117815 11.5649 4.67501 6.02206 10.9085 4.70074L11.5157 4.5869L11.6328 4.5735C12.2107 4.53751 12.7339 4.94407 12.8304 5.52774C12.9267 6.11148 12.5623 6.66503 12.0033 6.81681L11.8883 6.84137L11.3817 6.93734C6.18704 8.03906 2.28583 12.6629 2.28571 18.2008C2.28571 24.5616 7.43072 29.7141 13.7723 29.7141C19.583 29.7141 24.3899 25.3876 25.1529 19.7699C25.2378 19.1445 25.8143 18.7062 26.4398 18.7912C27.0649 18.8762 27.5031 19.4517 27.4185 20.0769C26.5043 26.8088 20.7456 31.9998 13.7723 31.9998Z" fill="#0077FF"/>
</g>
</g>
</g>
<defs>
<clipPath id="clip0_105_152">
<rect width="153" height="32" fill="white"/>
</clipPath>
<clipPath id="clip1_105_152">
<rect width="32" height="32" fill="white"/>
</clipPath>
</defs>
</svg>
