<svg width="124" height="24" viewBox="0 0 124 24" fill="none" xmlns="http://www.w3.org/2000/svg">
<g clip-path="url(#clip0_95_18)">
<path d="M31.82 20.2C30.6467 20.2 29.6467 19.98 28.82 19.54C28.0067 19.1 27.38 18.48 26.94 17.68C26.5133 16.88 26.2733 15.94 26.22 14.86C26.2067 14.2733 26.2 13.6533 26.2 13C26.2 12.3333 26.2067 11.7 26.22 11.1C26.2733 10.02 26.5133 9.08667 26.94 8.3C27.38 7.51333 28.0133 6.9 28.84 6.46C29.6667 6.02 30.66 5.8 31.82 5.8C32.7667 5.8 33.5867 5.93333 34.28 6.2C34.9733 6.46667 35.54 6.80667 35.98 7.22C36.4333 7.62 36.7667 8.04 36.98 8.48C37.2067 8.92 37.3267 9.30667 37.34 9.64C37.3533 9.76 37.32 9.86 37.24 9.94C37.16 10.0067 37.0533 10.04 36.92 10.04H35.74C35.6067 10.04 35.5067 10.0133 35.44 9.96C35.3867 9.90667 35.3333 9.81333 35.28 9.68C35.16 9.33333 34.96 8.99333 34.68 8.66C34.4133 8.32667 34.0467 8.05333 33.58 7.84C33.1267 7.61333 32.54 7.5 31.82 7.5C30.7667 7.5 29.9133 7.78667 29.26 8.36C28.62 8.93333 28.2733 9.88 28.22 11.2C28.18 12.3867 28.18 13.5733 28.22 14.76C28.2733 16.0933 28.6267 17.0533 29.28 17.64C29.9333 18.2133 30.7867 18.5 31.84 18.5C32.5467 18.5 33.1733 18.3733 33.72 18.12C34.28 17.8533 34.72 17.4467 35.04 16.9C35.36 16.3533 35.52 15.66 35.52 14.82V13.98H32.52C32.3867 13.98 32.2733 13.94 32.18 13.86C32.1 13.7667 32.06 13.6467 32.06 13.5V12.86C32.06 12.7133 32.1 12.6 32.18 12.52C32.2733 12.4267 32.3867 12.38 32.52 12.38H37.04C37.1867 12.38 37.3 12.4267 37.38 12.52C37.46 12.6 37.5 12.7133 37.5 12.86V14.78C37.5 15.8733 37.2733 16.8267 36.82 17.64C36.38 18.4533 35.7333 19.0867 34.88 19.54C34.0267 19.98 33.0067 20.2 31.82 20.2ZM44.2333 20.2C42.8599 20.2 41.7666 19.78 40.9533 18.94C40.1399 18.0867 39.6933 16.9267 39.6133 15.46C39.5999 15.2867 39.5933 15.0667 39.5933 14.8C39.5933 14.52 39.5999 14.2933 39.6133 14.12C39.6666 13.1733 39.8866 12.3467 40.2733 11.64C40.6599 10.92 41.1866 10.3667 41.8533 9.98C42.5333 9.59333 43.3266 9.4 44.2333 9.4C45.2466 9.4 46.0933 9.61333 46.7733 10.04C47.4666 10.4667 47.9933 11.0733 48.3533 11.86C48.7133 12.6467 48.8933 13.5667 48.8933 14.62V14.96C48.8933 15.1067 48.8466 15.22 48.7533 15.3C48.6733 15.38 48.5666 15.42 48.4333 15.42H41.5133C41.5133 15.4333 41.5133 15.46 41.5133 15.5C41.5133 15.54 41.5133 15.5733 41.5133 15.6C41.5399 16.1467 41.6599 16.66 41.8733 17.14C42.0866 17.6067 42.3933 17.9867 42.7933 18.28C43.1933 18.5733 43.6733 18.72 44.2333 18.72C44.7133 18.72 45.1133 18.6467 45.4333 18.5C45.7533 18.3533 46.0133 18.1933 46.2133 18.02C46.4133 17.8333 46.5466 17.6933 46.6133 17.6C46.7333 17.4267 46.8266 17.3267 46.8933 17.3C46.9599 17.26 47.0666 17.24 47.2133 17.24H48.1733C48.3066 17.24 48.4133 17.28 48.4933 17.36C48.5866 17.4267 48.6266 17.5267 48.6133 17.66C48.5999 17.86 48.4933 18.1067 48.2933 18.4C48.0933 18.68 47.8066 18.96 47.4333 19.24C47.0599 19.52 46.6066 19.7533 46.0733 19.94C45.5399 20.1133 44.9266 20.2 44.2333 20.2ZM41.5133 14.04H46.9933V13.98C46.9933 13.38 46.8799 12.8467 46.6533 12.38C46.4399 11.9133 46.1266 11.5467 45.7133 11.28C45.2999 11 44.8066 10.86 44.2333 10.86C43.6599 10.86 43.1666 11 42.7533 11.28C42.3533 11.5467 42.0466 11.9133 41.8333 12.38C41.6199 12.8467 41.5133 13.38 41.5133 13.98V14.04ZM55.2861 20C54.5394 20 53.9328 19.86 53.4661 19.58C52.9994 19.2867 52.6594 18.88 52.4461 18.36C52.2328 17.8267 52.1261 17.2 52.1261 16.48V11.2H50.5661C50.4328 11.2 50.3194 11.16 50.2261 11.08C50.1461 10.9867 50.1061 10.8733 50.1061 10.74V10.06C50.1061 9.92667 50.1461 9.82 50.2261 9.74C50.3194 9.64667 50.4328 9.6 50.5661 9.6H52.1261V6.26C52.1261 6.12667 52.1661 6.02 52.2461 5.94C52.3394 5.84667 52.4528 5.8 52.5861 5.8H53.5261C53.6594 5.8 53.7661 5.84667 53.8461 5.94C53.9394 6.02 53.9861 6.12667 53.9861 6.26V9.6H56.4661C56.5994 9.6 56.7061 9.64667 56.7861 9.74C56.8794 9.82 56.9261 9.92667 56.9261 10.06V10.74C56.9261 10.8733 56.8794 10.9867 56.7861 11.08C56.7061 11.16 56.5994 11.2 56.4661 11.2H53.9861V16.34C53.9861 16.9667 54.0928 17.46 54.3061 17.82C54.5194 18.18 54.8994 18.36 55.4461 18.36H56.6661C56.7994 18.36 56.9061 18.4067 56.9861 18.5C57.0794 18.58 57.1261 18.6867 57.1261 18.82V19.54C57.1261 19.6733 57.0794 19.7867 56.9861 19.88C56.9061 19.96 56.7994 20 56.6661 20H55.2861ZM59.5386 20C59.3919 20 59.2719 19.9533 59.1786 19.86C59.0853 19.7667 59.0386 19.6467 59.0386 19.5V6.5C59.0386 6.35333 59.0853 6.23333 59.1786 6.14C59.2719 6.04667 59.3919 6 59.5386 6H64.9986C66.0786 6 67.0119 6.16667 67.7986 6.5C68.5986 6.83333 69.2186 7.34 69.6586 8.02C70.1119 8.68667 70.3386 9.52 70.3386 10.52C70.3386 11.5333 70.1119 12.3733 69.6586 13.04C69.2186 13.6933 68.5986 14.18 67.7986 14.5C67.0119 14.82 66.0786 14.98 64.9986 14.98H62.3186V19.5C62.3186 19.6467 62.2719 19.7667 62.1786 19.86C62.0853 19.9533 61.9653 20 61.8186 20H59.5386ZM62.2586 12.5H64.8986C65.5786 12.5 66.1053 12.3333 66.4786 12C66.8653 11.6667 67.0586 11.1667 67.0586 10.5C67.0586 9.91333 66.8853 9.43333 66.5386 9.06C66.2053 8.68667 65.6586 8.5 64.8986 8.5H62.2586V12.5ZM72.6384 20C72.5051 20 72.3918 19.9533 72.2984 19.86C72.2051 19.7667 72.1584 19.6467 72.1584 19.5V10.1C72.1584 9.96667 72.2051 9.85333 72.2984 9.76C72.3918 9.65333 72.5051 9.6 72.6384 9.6H74.5984C74.7318 9.6 74.8451 9.65333 74.9384 9.76C75.0451 9.85333 75.0984 9.96667 75.0984 10.1V10.9C75.4318 10.4867 75.8384 10.1667 76.3184 9.94C76.8118 9.71333 77.3784 9.6 78.0184 9.6H78.8784C79.0118 9.6 79.1251 9.64667 79.2184 9.74C79.3118 9.83333 79.3584 9.95333 79.3584 10.1V11.82C79.3584 11.9667 79.3118 12.0867 79.2184 12.18C79.1251 12.2733 79.0118 12.32 78.8784 12.32H77.1184C76.5318 12.32 76.0718 12.4867 75.7384 12.82C75.4051 13.14 75.2384 13.6 75.2384 14.2V19.5C75.2384 19.6467 75.1918 19.7667 75.0984 19.86C75.0051 19.9533 74.8851 20 74.7384 20H72.6384ZM85.4927 20.2C84.386 20.2 83.4593 20.02 82.7127 19.66C81.966 19.2867 81.3927 18.76 80.9927 18.08C80.606 17.4 80.3927 16.6067 80.3527 15.7C80.3393 15.4333 80.3327 15.1333 80.3327 14.8C80.3327 14.4533 80.3393 14.1533 80.3527 13.9C80.3927 12.98 80.6193 12.1867 81.0327 11.52C81.446 10.84 82.026 10.32 82.7727 9.96C83.5193 9.58667 84.426 9.4 85.4927 9.4C86.546 9.4 87.446 9.58667 88.1927 9.96C88.9393 10.32 89.5193 10.84 89.9327 11.52C90.346 12.1867 90.5727 12.98 90.6127 13.9C90.6393 14.1533 90.6527 14.4533 90.6527 14.8C90.6527 15.1333 90.6393 15.4333 90.6127 15.7C90.5727 16.6067 90.3527 17.4 89.9527 18.08C89.566 18.76 88.9993 19.2867 88.2527 19.66C87.506 20.02 86.586 20.2 85.4927 20.2ZM85.4927 18C86.146 18 86.6393 17.8 86.9727 17.4C87.306 16.9867 87.486 16.3867 87.5127 15.6C87.526 15.4 87.5327 15.1333 87.5327 14.8C87.5327 14.4667 87.526 14.2 87.5127 14C87.486 13.2267 87.306 12.6333 86.9727 12.22C86.6393 11.8067 86.146 11.6 85.4927 11.6C84.8393 11.6 84.3393 11.8067 83.9927 12.22C83.6593 12.6333 83.4793 13.2267 83.4527 14C83.4393 14.2 83.4327 14.4667 83.4327 14.8C83.4327 15.1333 83.4393 15.4 83.4527 15.6C83.4793 16.3867 83.6593 16.9867 83.9927 17.4C84.3393 17.8 84.8393 18 85.4927 18ZM94.2867 20C94.1401 20 94.0201 19.9533 93.9267 19.86C93.8334 19.7667 93.7867 19.6467 93.7867 19.5V11.96H92.2267C92.0801 11.96 91.9601 11.9133 91.8667 11.82C91.7734 11.7267 91.7267 11.6067 91.7267 11.46V10.1C91.7267 9.95333 91.7734 9.83333 91.8667 9.74C91.9601 9.64667 92.0801 9.6 92.2267 9.6H93.7867V8.88C93.7867 8.02667 93.9467 7.32667 94.2667 6.78C94.5867 6.23333 95.0534 5.83333 95.6667 5.58C96.2801 5.32667 97.0334 5.2 97.9267 5.2H102.527C102.66 5.2 102.773 5.24667 102.867 5.34C102.96 5.43333 103.007 5.55333 103.007 5.7V7.06C103.007 7.20667 102.96 7.32667 102.867 7.42C102.773 7.51333 102.66 7.56 102.527 7.56H98.0467C97.5534 7.56 97.2067 7.68 97.0067 7.92C96.8201 8.16 96.7267 8.51333 96.7267 8.98V9.6H102.527C102.66 9.6 102.773 9.64667 102.867 9.74C102.96 9.83333 103.007 9.95333 103.007 10.1V19.5C103.007 19.6467 102.96 19.7667 102.867 19.86C102.773 19.9533 102.66 20 102.527 20H100.567C100.42 20 100.3 19.9533 100.207 19.86C100.113 19.7667 100.067 19.6467 100.067 19.5V11.96H96.7267V19.5C96.7267 19.6467 96.6801 19.7667 96.5867 19.86C96.4934 19.9533 96.3801 20 96.2467 20H94.2867ZM106.018 20C105.871 20 105.751 19.9533 105.658 19.86C105.564 19.7667 105.518 19.6467 105.518 19.5V6.3C105.518 6.15333 105.564 6.03333 105.658 5.94C105.751 5.84667 105.871 5.8 106.018 5.8H108.018C108.151 5.8 108.264 5.84667 108.358 5.94C108.451 6.03333 108.498 6.15333 108.498 6.3V19.5C108.498 19.6467 108.451 19.7667 108.358 19.86C108.264 19.9533 108.151 20 108.018 20H106.018ZM115.666 20.2C114.132 20.2 112.912 19.7733 112.006 18.92C111.112 18.0667 110.639 16.8267 110.586 15.2C110.586 15.0933 110.586 14.9533 110.586 14.78C110.586 14.5933 110.586 14.4467 110.586 14.34C110.639 13.3133 110.872 12.4333 111.286 11.7C111.699 10.9533 112.279 10.3867 113.026 10C113.772 9.6 114.646 9.4 115.646 9.4C116.766 9.4 117.699 9.63333 118.446 10.1C119.206 10.5533 119.772 11.18 120.146 11.98C120.532 12.7667 120.726 13.6733 120.726 14.7V15.16C120.726 15.2933 120.672 15.4067 120.566 15.5C120.472 15.5933 120.359 15.64 120.226 15.64H113.686C113.686 15.6533 113.686 15.68 113.686 15.72C113.686 15.7467 113.686 15.7733 113.686 15.8C113.699 16.2267 113.779 16.62 113.926 16.98C114.086 17.3267 114.306 17.6067 114.586 17.82C114.879 18.0333 115.226 18.14 115.626 18.14C115.959 18.14 116.232 18.0933 116.446 18C116.659 17.9067 116.832 17.7933 116.966 17.66C117.112 17.5267 117.219 17.4133 117.286 17.32C117.406 17.1867 117.499 17.1067 117.566 17.08C117.646 17.04 117.766 17.02 117.926 17.02H120.006C120.139 17.02 120.246 17.06 120.326 17.14C120.419 17.2067 120.459 17.3067 120.446 17.44C120.432 17.6533 120.319 17.92 120.106 18.24C119.906 18.5467 119.606 18.8533 119.206 19.16C118.806 19.4533 118.306 19.7 117.706 19.9C117.119 20.1 116.439 20.2 115.666 20.2ZM113.686 13.82H117.606V13.78C117.606 13.3 117.526 12.8867 117.366 12.54C117.219 12.18 116.999 11.9 116.706 11.7C116.412 11.5 116.059 11.4 115.646 11.4C115.232 11.4 114.879 11.5 114.586 11.7C114.292 11.9 114.066 12.18 113.906 12.54C113.759 12.8867 113.686 13.3 113.686 13.78V13.82Z" fill="white"/>
<path d="M12 13C12 12.2044 11.6839 11.4413 11.1213 10.8787C10.5587 10.3161 9.79565 10 9 10C8.20435 10 7.44129 10.3161 6.87868 10.8787C6.31607 11.4413 6 12.2044 6 13" stroke="#007FFF" stroke-width="2" stroke-linecap="round" stroke-linejoin="round"/>
<path d="M1 19.5V4.5C1 3.83696 1.26339 3.20107 1.73223 2.73223C2.20107 2.26339 2.83696 2 3.5 2H16C16.2652 2 16.5196 2.10536 16.7071 2.29289C16.8946 2.48043 17 2.73478 17 3V21C17 21.2652 16.8946 21.5196 16.7071 21.7071C16.5196 21.8946 16.2652 22 16 22H3.5C2.83696 22 2.20107 21.7366 1.73223 21.2678C1.26339 20.7989 1 20.163 1 19.5ZM1 19.5C1 18.837 1.26339 18.2011 1.73223 17.7322C2.20107 17.2634 2.83696 17 3.5 17H17" stroke="#007FFF" stroke-width="2" stroke-linecap="round" stroke-linejoin="round"/>
<path d="M9 10C10.1046 10 11 9.10457 11 8C11 6.89543 10.1046 6 9 6C7.89543 6 7 6.89543 7 8C7 9.10457 7.89543 10 9 10Z" stroke="#007FFF" stroke-width="2" stroke-linecap="round" stroke-linejoin="round"/>
</g>
<defs>
<clipPath id="clip0_95_18">
<rect width="124" height="24" fill="white"/>
</clipPath>
</defs>
</svg>
