<svg width="153" height="32" viewBox="0 0 153 32" fill="none"
	xmlns="http://www.w3.org/2000/svg">
	<g clip-path="url(#clip0_108_41)">
		<g clip-path="url(#clip1_108_41)">
			<path d="M24.8762 4.98458C24.8762 5.17344 24.8012 5.35456 24.6675 5.4881C24.534 5.62164 24.3528 5.69667 24.1638 5.69667C23.2192 5.69667 22.3133 6.07178 21.6454 6.73952C20.9774 7.40717 20.6022 8.31283 20.6022 9.25709C20.6022 9.44595 20.5271 9.62707 20.3935 9.76058C20.2599 9.89414 20.0787 9.96915 19.8898 9.96915C19.7009 9.96915 19.5197 9.89414 19.3861 9.76058C19.2525 9.62707 19.1775 9.44595 19.1775 9.25709C19.1775 8.31283 18.8022 7.40717 18.1343 6.73952C17.4663 6.07178 16.5604 5.69667 15.6158 5.69667C15.4269 5.69667 15.2457 5.62164 15.1121 5.4881C14.9785 5.35456 14.9034 5.17344 14.9034 4.98458C14.9034 4.79573 14.9785 4.6146 15.1121 4.48107C15.2457 4.34753 15.4269 4.2725 15.6158 4.2725C16.5604 4.2725 17.4663 3.89739 18.1343 3.22968C18.8022 2.56197 19.1775 1.65636 19.1775 0.712083C19.1775 0.523228 19.2525 0.342106 19.3861 0.208564C19.5197 0.0750227 19.7009 0 19.8898 0C20.0787 0 20.2599 0.0750227 20.3935 0.208564C20.5271 0.342106 20.6022 0.523228 20.6022 0.712083C20.6022 1.65636 20.9774 2.56197 21.6454 3.22968C22.3133 3.89739 23.2192 4.2725 24.1638 4.2725C24.3528 4.2725 24.534 4.34753 24.6675 4.48107C24.8012 4.6146 24.8762 4.79573 24.8762 4.98458Z" fill="url(#paint0_linear_108_41)"/>
			<path d="M32 9.24831C32 9.40952 31.9359 9.56415 31.8219 9.67813C31.7079 9.79211 31.5532 9.85618 31.3919 9.85618C30.5856 9.85618 29.8123 10.1764 29.2421 10.7464C28.6719 11.3163 28.3516 12.0893 28.3516 12.8954C28.3516 13.0566 28.2876 13.2113 28.1735 13.3252C28.0595 13.4392 27.9048 13.5032 27.7436 13.5032C27.5823 13.5032 27.4277 13.4392 27.3136 13.3252C27.1996 13.2113 27.1355 13.0566 27.1355 12.8954C27.1355 12.0893 26.8152 11.3163 26.245 10.7464C25.6748 10.1764 24.9015 9.85618 24.0952 9.85618C23.9339 9.85618 23.7793 9.79211 23.6652 9.67813C23.5512 9.56415 23.4871 9.40952 23.4871 9.24831C23.4871 9.08709 23.5512 8.93253 23.6652 8.81855C23.7793 8.7045 23.9339 8.6405 24.0952 8.6405C24.9015 8.6405 25.6748 8.32031 26.245 7.75032C26.8152 7.18034 27.1355 6.40728 27.1355 5.60125C27.1355 5.44004 27.1996 5.28544 27.3136 5.17144C27.4277 5.05745 27.5823 4.99341 27.7436 4.99341C27.9048 4.99341 28.0595 5.05745 28.1735 5.17144C28.2876 5.28544 28.3516 5.44004 28.3516 5.60125C28.3516 6.40728 28.6719 7.18034 29.2421 7.75032C29.8123 8.32031 30.5856 8.6405 31.3919 8.6405C31.5532 8.6405 31.7079 8.7045 31.8219 8.81855C31.9359 8.93253 32 9.08709 32 9.24831Z" fill="url(#paint1_linear_108_41)"/>
			<path d="M25.3161 14.3121C25.3161 14.4333 25.2679 14.5496 25.1821 14.6353C25.0964 14.721 24.9801 14.7691 24.8587 14.7691C24.2523 14.7691 23.6708 15.01 23.242 15.4387C22.8132 15.8673 22.5723 16.4486 22.5723 17.0548C22.5723 17.1761 22.5241 17.2924 22.4383 17.3781C22.3526 17.4639 22.2362 17.512 22.1149 17.512C21.9937 17.512 21.8774 17.4639 21.7916 17.3781C21.7058 17.2924 21.6577 17.1761 21.6577 17.0548C21.6577 16.4486 21.4168 15.8673 20.988 15.4387C20.5592 15.01 19.9775 14.7691 19.3711 14.7691C19.2498 14.7691 19.1335 14.721 19.0477 14.6353C18.962 14.5496 18.9138 14.4333 18.9138 14.3121C18.9138 14.1908 18.962 14.0745 19.0477 13.9888C19.1335 13.903 19.2498 13.8549 19.3711 13.8549C19.9775 13.8549 20.5592 13.6141 20.988 13.1854C21.4168 12.7568 21.6577 12.1754 21.6577 11.5692C21.6577 11.4479 21.7058 11.3316 21.7916 11.2459C21.8774 11.1602 21.9937 11.1121 22.1149 11.1121C22.2362 11.1121 22.3526 11.1602 22.4383 11.2459C22.5241 11.3316 22.5723 11.4479 22.5723 11.5692C22.5723 12.1754 22.8132 12.7568 23.242 13.1854C23.6708 13.6141 24.2523 13.8549 24.8587 13.8549C24.9801 13.8549 25.0964 13.903 25.1821 13.9888C25.2679 14.0745 25.3161 14.1908 25.3161 14.3121Z" fill="url(#paint2_linear_108_41)"/>
			<path d="M14.2168 16.2289C14.2168 15.4718 13.6031 14.8575 12.8458 14.8572C12.0883 14.8572 11.4737 15.4716 11.4737 16.2289C11.4738 16.6998 11.6902 17.6097 12.0899 18.4108C12.2847 18.8013 12.4897 19.0961 12.6716 19.2769C12.7535 19.3582 12.8119 19.3968 12.8447 19.4152C12.8773 19.397 12.9361 19.359 13.0188 19.2769C13.2008 19.0961 13.4057 18.8013 13.6005 18.4108C14.0002 17.6097 14.2166 16.6998 14.2168 16.2289ZM16.5034 16.2289C16.5032 17.1465 16.1573 18.408 15.647 19.4309C15.3869 19.9521 15.0494 20.4819 14.6299 20.8985C14.2187 21.3068 13.6147 21.7142 12.8458 21.7144C12.0766 21.7144 11.4719 21.3068 11.0605 20.8985C10.641 20.4819 10.3035 19.9521 10.0435 19.4309C9.53312 18.408 9.18726 17.1465 9.18713 16.2289C9.18713 14.2092 10.8254 12.5715 12.8458 12.5715C14.8659 12.5718 16.5034 14.2094 16.5034 16.2289Z" fill="url(#paint3_linear_108_41)"/>
			<path d="M17.1898 29.7143V28.5715C17.1898 27.4184 16.7238 26.6163 15.9795 26.067C15.1958 25.4887 14.028 25.1429 12.6166 25.1429C11.2054 25.1429 10.0376 25.4887 9.25389 26.067C8.50951 26.6163 8.04359 27.4184 8.04359 28.5715C8.04359 29.2026 7.53178 29.7143 6.90036 29.7143C6.26893 29.7143 5.75708 29.2026 5.75708 28.5715C5.75708 26.6883 6.57082 25.2051 7.89511 24.2277C9.18036 23.2794 10.8709 22.8572 12.6166 22.8572C14.3624 22.8572 16.053 23.2794 17.3382 24.2277C18.6625 25.2051 19.4763 26.6883 19.4763 28.5715V29.7143C19.4763 30.3455 18.9644 30.8572 18.333 30.8572C17.7016 30.8572 17.1898 30.3455 17.1898 29.7143Z" fill="url(#paint4_linear_108_41)"/>
			<path d="M13.818 31.9999C6.20678 31.9999 0.0978855 25.8193 0.0407425 18.2009C-0.00213334 12.4846 2.69371 9.78522 4.7157 7.76071C6.73767 5.73616 10.2935 4.85594 10.2935 4.85594L10.4108 4.84255C10.9889 4.80655 11.5123 5.21311 11.6087 5.79679C11.7052 6.38052 11.3405 6.93409 10.7814 7.08583L10.6664 7.1104L9.68615 7.4233C6.06364 8.773 2.32727 12.3495 2.32727 18.2009C2.32727 24.5617 7.47411 29.7142 13.818 29.7142C19.6307 29.7142 24.4394 25.3878 25.2026 19.7701C25.2876 19.1446 25.8643 18.7063 26.4899 18.7913C27.1153 18.8763 27.5537 19.4518 27.4691 20.077C26.5546 26.8088 20.7937 31.9999 13.818 31.9999Z" fill="url(#paint5_linear_108_41)"/>
		</g>
		<path d="M45.184 27.24C43.776 27.24 42.576 26.976 41.584 26.448C40.608 25.92 39.856 25.176 39.328 24.216C38.816 23.256 38.528 22.128 38.464 20.832C38.448 20.128 38.44 19.384 38.44 18.6C38.44 17.8 38.448 17.04 38.464 16.32C38.528 15.024 38.816 13.904 39.328 12.96C39.856 12.016 40.616 11.28 41.608 10.752C42.6 10.224 43.792 9.96 45.184 9.96C46.32 9.96 47.304 10.12 48.136 10.44C48.968 10.76 49.648 11.168 50.176 11.664C50.72 12.144 51.12 12.648 51.376 13.176C51.648 13.704 51.792 14.168 51.808 14.568C51.824 14.712 51.784 14.832 51.688 14.928C51.592 15.008 51.464 15.048 51.304 15.048H49.888C49.728 15.048 49.608 15.016 49.528 14.952C49.464 14.888 49.4 14.776 49.336 14.616C49.192 14.2 48.952 13.792 48.616 13.392C48.296 12.992 47.856 12.664 47.296 12.408C46.752 12.136 46.048 12 45.184 12C43.92 12 42.896 12.344 42.112 13.032C41.344 13.72 40.928 14.856 40.864 16.44C40.816 17.864 40.816 19.288 40.864 20.712C40.928 22.312 41.352 23.464 42.136 24.168C42.92 24.856 43.944 25.2 45.208 25.2C46.056 25.2 46.808 25.048 47.464 24.744C48.136 24.424 48.664 23.936 49.048 23.28C49.432 22.624 49.624 21.792 49.624 20.784V19.776H46.024C45.864 19.776 45.728 19.728 45.616 19.632C45.52 19.52 45.472 19.376 45.472 19.2V18.432C45.472 18.256 45.52 18.12 45.616 18.024C45.728 17.912 45.864 17.856 46.024 17.856H51.448C51.624 17.856 51.76 17.912 51.856 18.024C51.952 18.12 52 18.256 52 18.432V20.736C52 22.048 51.728 23.192 51.184 24.168C50.656 25.144 49.88 25.904 48.856 26.448C47.832 26.976 46.608 27.24 45.184 27.24ZM60.0799 27.24C58.4319 27.24 57.1199 26.736 56.1439 25.728C55.1679 24.704 54.6319 23.312 54.5359 21.552C54.5199 21.344 54.5119 21.08 54.5119 20.76C54.5119 20.424 54.5199 20.152 54.5359 19.944C54.5999 18.808 54.8639 17.816 55.3279 16.968C55.7919 16.104 56.4239 15.44 57.2239 14.976C58.0399 14.512 58.9919 14.28 60.0799 14.28C61.2959 14.28 62.3119 14.536 63.1279 15.048C63.9599 15.56 64.5919 16.288 65.0239 17.232C65.4559 18.176 65.6719 19.28 65.6719 20.544V20.952C65.6719 21.128 65.6159 21.264 65.5039 21.36C65.4079 21.456 65.2799 21.504 65.1199 21.504H56.8159C56.8159 21.52 56.8159 21.552 56.8159 21.6C56.8159 21.648 56.8159 21.688 56.8159 21.72C56.8479 22.376 56.9919 22.992 57.2479 23.568C57.5039 24.128 57.8719 24.584 58.3519 24.936C58.8319 25.288 59.4079 25.464 60.0799 25.464C60.6559 25.464 61.1359 25.376 61.5199 25.2C61.9039 25.024 62.2159 24.832 62.4559 24.624C62.6959 24.4 62.8559 24.232 62.9359 24.12C63.0799 23.912 63.1919 23.792 63.2719 23.76C63.3519 23.712 63.4799 23.688 63.6559 23.688H64.8079C64.9679 23.688 65.0959 23.736 65.1919 23.832C65.3039 23.912 65.3519 24.032 65.3359 24.192C65.3199 24.432 65.1919 24.728 64.9519 25.08C64.7119 25.416 64.3679 25.752 63.9199 26.088C63.4719 26.424 62.9279 26.704 62.2879 26.928C61.6479 27.136 60.9119 27.24 60.0799 27.24ZM56.8159 19.848H63.3919V19.776C63.3919 19.056 63.2559 18.416 62.9839 17.856C62.7279 17.296 62.3519 16.856 61.8559 16.536C61.3599 16.2 60.7679 16.032 60.0799 16.032C59.3919 16.032 58.7999 16.2 58.3039 16.536C57.8239 16.856 57.4559 17.296 57.1999 17.856C56.9439 18.416 56.8159 19.056 56.8159 19.776V19.848ZM73.3433 27C72.4473 27 71.7193 26.832 71.1593 26.496C70.5993 26.144 70.1913 25.656 69.9353 25.032C69.6793 24.392 69.5513 23.64 69.5513 22.776V16.44H67.6793C67.5193 16.44 67.3833 16.392 67.2713 16.296C67.1753 16.184 67.1273 16.048 67.1273 15.888V15.072C67.1273 14.912 67.1753 14.784 67.2713 14.688C67.3833 14.576 67.5193 14.52 67.6793 14.52H69.5513V10.512C69.5513 10.352 69.5993 10.224 69.6953 10.128C69.8073 10.016 69.9433 9.96 70.1033 9.96H71.2313C71.3913 9.96 71.5193 10.016 71.6153 10.128C71.7273 10.224 71.7833 10.352 71.7833 10.512V14.52H74.7593C74.9193 14.52 75.0473 14.576 75.1433 14.688C75.2553 14.784 75.3113 14.912 75.3113 15.072V15.888C75.3113 16.048 75.2553 16.184 75.1433 16.296C75.0473 16.392 74.9193 16.44 74.7593 16.44H71.7833V22.608C71.7833 23.36 71.9113 23.952 72.1673 24.384C72.4233 24.816 72.8793 25.032 73.5353 25.032H74.9993C75.1593 25.032 75.2873 25.088 75.3833 25.2C75.4953 25.296 75.5513 25.424 75.5513 25.584V26.448C75.5513 26.608 75.4953 26.744 75.3833 26.856C75.2873 26.952 75.1593 27 74.9993 27H73.3433ZM78.4463 27C78.2703 27 78.1263 26.944 78.0143 26.832C77.9023 26.72 77.8463 26.576 77.8463 26.4V10.8C77.8463 10.624 77.9023 10.48 78.0143 10.368C78.1263 10.256 78.2703 10.2 78.4463 10.2H84.9983C86.2943 10.2 87.4143 10.4 88.3583 10.8C89.3183 11.2 90.0623 11.808 90.5903 12.624C91.1343 13.424 91.4063 14.424 91.4063 15.624C91.4063 16.84 91.1343 17.848 90.5903 18.648C90.0623 19.432 89.3183 20.016 88.3583 20.4C87.4143 20.784 86.2943 20.976 84.9983 20.976H81.7823V26.4C81.7823 26.576 81.7263 26.72 81.6143 26.832C81.5023 26.944 81.3583 27 81.1823 27H78.4463ZM81.7103 18H84.8783C85.6943 18 86.3263 17.8 86.7743 17.4C87.2383 17 87.4703 16.4 87.4703 15.6C87.4703 14.896 87.2623 14.32 86.8463 13.872C86.4463 13.424 85.7903 13.2 84.8783 13.2H81.7103V18ZM94.1661 27C94.0061 27 93.8701 26.944 93.7581 26.832C93.6461 26.72 93.5901 26.576 93.5901 26.4V15.12C93.5901 14.96 93.6461 14.824 93.7581 14.712C93.8701 14.584 94.0061 14.52 94.1661 14.52H96.5181C96.6781 14.52 96.8141 14.584 96.9261 14.712C97.0541 14.824 97.1181 14.96 97.1181 15.12V16.08C97.5181 15.584 98.0061 15.2 98.5821 14.928C99.1741 14.656 99.8541 14.52 100.622 14.52H101.654C101.814 14.52 101.95 14.576 102.062 14.688C102.174 14.8 102.23 14.944 102.23 15.12V17.184C102.23 17.36 102.174 17.504 102.062 17.616C101.95 17.728 101.814 17.784 101.654 17.784H99.5421C98.8381 17.784 98.2861 17.984 97.8861 18.384C97.4861 18.768 97.2861 19.32 97.2861 20.04V26.4C97.2861 26.576 97.2301 26.72 97.1181 26.832C97.0061 26.944 96.8621 27 96.6861 27H94.1661ZM109.591 27.24C108.263 27.24 107.151 27.024 106.255 26.592C105.359 26.144 104.671 25.512 104.191 24.696C103.727 23.88 103.471 22.928 103.423 21.84C103.407 21.52 103.399 21.16 103.399 20.76C103.399 20.344 103.407 19.984 103.423 19.68C103.471 18.576 103.743 17.624 104.239 16.824C104.735 16.008 105.431 15.384 106.327 14.952C107.223 14.504 108.311 14.28 109.591 14.28C110.855 14.28 111.935 14.504 112.831 14.952C113.727 15.384 114.423 16.008 114.919 16.824C115.415 17.624 115.687 18.576 115.735 19.68C115.767 19.984 115.783 20.344 115.783 20.76C115.783 21.16 115.767 21.52 115.735 21.84C115.687 22.928 115.423 23.88 114.943 24.696C114.479 25.512 113.799 26.144 112.903 26.592C112.007 27.024 110.903 27.24 109.591 27.24ZM109.591 24.6C110.375 24.6 110.967 24.36 111.367 23.88C111.767 23.384 111.983 22.664 112.015 21.72C112.031 21.48 112.039 21.16 112.039 20.76C112.039 20.36 112.031 20.04 112.015 19.8C111.983 18.872 111.767 18.16 111.367 17.664C110.967 17.168 110.375 16.92 109.591 16.92C108.807 16.92 108.207 17.168 107.791 17.664C107.391 18.16 107.175 18.872 107.143 19.8C107.127 20.04 107.119 20.36 107.119 20.76C107.119 21.16 107.127 21.48 107.143 21.72C107.175 22.664 107.391 23.384 107.791 23.88C108.207 24.36 108.807 24.6 109.591 24.6ZM120.144 27C119.968 27 119.824 26.944 119.712 26.832C119.6 26.72 119.544 26.576 119.544 26.4V17.352H117.672C117.496 17.352 117.352 17.296 117.24 17.184C117.128 17.072 117.072 16.928 117.072 16.752V15.12C117.072 14.944 117.128 14.8 117.24 14.688C117.352 14.576 117.496 14.52 117.672 14.52H119.544V13.656C119.544 12.632 119.736 11.792 120.12 11.136C120.504 10.48 121.064 10 121.8 9.696C122.536 9.392 123.44 9.24 124.512 9.24H130.032C130.192 9.24 130.328 9.296 130.44 9.408C130.552 9.52 130.608 9.664 130.608 9.84V11.472C130.608 11.648 130.552 11.792 130.44 11.904C130.328 12.016 130.192 12.072 130.032 12.072H124.656C124.064 12.072 123.648 12.216 123.408 12.504C123.184 12.792 123.072 13.216 123.072 13.776V14.52H130.032C130.192 14.52 130.328 14.576 130.44 14.688C130.552 14.8 130.608 14.944 130.608 15.12V26.4C130.608 26.576 130.552 26.72 130.44 26.832C130.328 26.944 130.192 27 130.032 27H127.68C127.504 27 127.36 26.944 127.248 26.832C127.136 26.72 127.08 26.576 127.08 26.4V17.352H123.072V26.4C123.072 26.576 123.016 26.72 122.904 26.832C122.792 26.944 122.656 27 122.496 27H120.144ZM134.221 27C134.045 27 133.901 26.944 133.789 26.832C133.677 26.72 133.621 26.576 133.621 26.4V10.56C133.621 10.384 133.677 10.24 133.789 10.128C133.901 10.016 134.045 9.96 134.221 9.96H136.621C136.781 9.96 136.917 10.016 137.029 10.128C137.141 10.24 137.197 10.384 137.197 10.56V26.4C137.197 26.576 137.141 26.72 137.029 26.832C136.917 26.944 136.781 27 136.621 27H134.221ZM145.799 27.24C143.959 27.24 142.495 26.728 141.407 25.704C140.335 24.68 139.767 23.192 139.703 21.24C139.703 21.112 139.703 20.944 139.703 20.736C139.703 20.512 139.703 20.336 139.703 20.208C139.767 18.976 140.047 17.92 140.543 17.04C141.039 16.144 141.735 15.464 142.631 15C143.527 14.52 144.575 14.28 145.775 14.28C147.119 14.28 148.239 14.56 149.135 15.12C150.047 15.664 150.727 16.416 151.175 17.376C151.639 18.32 151.871 19.408 151.871 20.64V21.192C151.871 21.352 151.807 21.488 151.679 21.6C151.567 21.712 151.431 21.768 151.271 21.768H143.423C143.423 21.784 143.423 21.816 143.423 21.864C143.423 21.896 143.423 21.928 143.423 21.96C143.439 22.472 143.535 22.944 143.711 23.376C143.903 23.792 144.167 24.128 144.503 24.384C144.855 24.64 145.271 24.768 145.751 24.768C146.151 24.768 146.479 24.712 146.735 24.6C146.991 24.488 147.199 24.352 147.359 24.192C147.535 24.032 147.663 23.896 147.743 23.784C147.887 23.624 147.999 23.528 148.079 23.496C148.175 23.448 148.319 23.424 148.511 23.424H151.007C151.167 23.424 151.295 23.472 151.391 23.568C151.503 23.648 151.551 23.768 151.535 23.928C151.519 24.184 151.383 24.504 151.127 24.888C150.887 25.256 150.527 25.624 150.047 25.992C149.567 26.344 148.967 26.64 148.247 26.88C147.543 27.12 146.727 27.24 145.799 27.24ZM143.423 19.584H148.127V19.536C148.127 18.96 148.031 18.464 147.839 18.048C147.663 17.616 147.399 17.28 147.047 17.04C146.695 16.8 146.271 16.68 145.775 16.68C145.279 16.68 144.855 16.8 144.503 17.04C144.151 17.28 143.879 17.616 143.687 18.048C143.511 18.464 143.423 18.96 143.423 19.536V19.584Z" fill="black"/>
	</g>
	<defs>
		<linearGradient id="paint0_linear_108_41" x1="16.9932" y1="8.19936" x2="27.5053" y2="-2.0009" gradientUnits="userSpaceOnUse">
			<stop stop-color="#0077FF"/>
			<stop offset="0.764423" stop-color="#FF05E6"/>
		</linearGradient>
		<linearGradient id="paint1_linear_108_41" x1="25.2709" y1="11.9925" x2="34.2442" y2="3.28541" gradientUnits="userSpaceOnUse">
			<stop stop-color="#0077FF"/>
			<stop offset="0.764423" stop-color="#FF05E6"/>
		</linearGradient>
		<linearGradient id="paint2_linear_108_41" x1="20.2554" y1="16.3758" x2="27.0039" y2="9.82752" gradientUnits="userSpaceOnUse">
			<stop stop-color="#0077FF"/>
			<stop offset="0.764423" stop-color="#FF05E6"/>
		</linearGradient>
		<linearGradient id="paint3_linear_108_41" x1="10.7202" y1="20.0912" x2="20.0639" y2="12.8387" gradientUnits="userSpaceOnUse">
			<stop stop-color="#0077FF"/>
			<stop offset="0.764423" stop-color="#FF05E6"/>
		</linearGradient>
		<linearGradient id="paint4_linear_108_41" x1="5.79046" y1="27.1306" x2="34.7128" y2="-0.934079" gradientUnits="userSpaceOnUse">
			<stop stop-color="#0077FF"/>
			<stop offset="0.764423" stop-color="#FF05E6"/>
		</linearGradient>
		<linearGradient id="paint5_linear_108_41" x1="5.79045" y1="27.1306" x2="34.7128" y2="-0.934162" gradientUnits="userSpaceOnUse">
			<stop stop-color="#0077FF"/>
			<stop offset="0.764423" stop-color="#FF05E6"/>
		</linearGradient>
		<clipPath id="clip0_108_41">
			<rect width="153" height="32" fill="white"/>
		</clipPath>
		<clipPath id="clip1_108_41">
			<rect width="32" height="32" fill="white"/>
		</clipPath>
	</defs>
</svg>
