<svg width="124" height="24" viewBox="0 0 124 24" fill="none" xmlns="http://www.w3.org/2000/svg">
<g clip-path="url(#clip0_95_9)">
<path d="M31.82 20.2C30.6467 20.2 29.6467 19.98 28.82 19.54C28.0067 19.1 27.38 18.48 26.94 17.68C26.5133 16.88 26.2733 15.94 26.22 14.86C26.2067 14.2733 26.2 13.6533 26.2 13C26.2 12.3333 26.2067 11.7 26.22 11.1C26.2733 10.02 26.5133 9.08667 26.94 8.3C27.38 7.51333 28.0133 6.9 28.84 6.46C29.6667 6.02 30.66 5.8 31.82 5.8C32.7667 5.8 33.5867 5.93333 34.28 6.2C34.9733 6.46667 35.54 6.80667 35.98 7.22C36.4333 7.62 36.7667 8.04 36.98 8.48C37.2067 8.92 37.3267 9.30667 37.34 9.64C37.3533 9.76 37.32 9.86 37.24 9.94C37.16 10.0067 37.0533 10.04 36.92 10.04H35.74C35.6067 10.04 35.5067 10.0133 35.44 9.96C35.3867 9.90667 35.3333 9.81333 35.28 9.68C35.16 9.33333 34.96 8.99333 34.68 8.66C34.4133 8.32667 34.0467 8.05333 33.58 7.84C33.1267 7.61333 32.54 7.5 31.82 7.5C30.7667 7.5 29.9133 7.78667 29.26 8.36C28.62 8.93333 28.2733 9.88 28.22 11.2C28.18 12.3867 28.18 13.5733 28.22 14.76C28.2733 16.0933 28.6267 17.0533 29.28 17.64C29.9333 18.2133 30.7867 18.5 31.84 18.5C32.5467 18.5 33.1733 18.3733 33.72 18.12C34.28 17.8533 34.72 17.4467 35.04 16.9C35.36 16.3533 35.52 15.66 35.52 14.82V13.98H32.52C32.3867 13.98 32.2733 13.94 32.18 13.86C32.1 13.7667 32.06 13.6467 32.06 13.5V12.86C32.06 12.7133 32.1 12.6 32.18 12.52C32.2733 12.4267 32.3867 12.38 32.52 12.38H37.04C37.1867 12.38 37.3 12.4267 37.38 12.52C37.46 12.6 37.5 12.7133 37.5 12.86V14.78C37.5 15.8733 37.2733 16.8267 36.82 17.64C36.38 18.4533 35.7333 19.0867 34.88 19.54C34.0267 19.98 33.0067 20.2 31.82 20.2ZM44.2333 20.2C42.8599 20.2 41.7666 19.78 40.9533 18.94C40.1399 18.0867 39.6933 16.9267 39.6133 15.46C39.5999 15.2867 39.5933 15.0667 39.5933 14.8C39.5933 14.52 39.5999 14.2933 39.6133 14.12C39.6666 13.1733 39.8866 12.3467 40.2733 11.64C40.6599 10.92 41.1866 10.3667 41.8533 9.98C42.5333 9.59333 43.3266 9.4 44.2333 9.4C45.2466 9.4 46.0933 9.61333 46.7733 10.04C47.4666 10.4667 47.9933 11.0733 48.3533 11.86C48.7133 12.6467 48.8933 13.5667 48.8933 14.62V14.96C48.8933 15.1067 48.8466 15.22 48.7533 15.3C48.6733 15.38 48.5666 15.42 48.4333 15.42H41.5133C41.5133 15.4333 41.5133 15.46 41.5133 15.5C41.5133 15.54 41.5133 15.5733 41.5133 15.6C41.5399 16.1467 41.6599 16.66 41.8733 17.14C42.0866 17.6067 42.3933 17.9867 42.7933 18.28C43.1933 18.5733 43.6733 18.72 44.2333 18.72C44.7133 18.72 45.1133 18.6467 45.4333 18.5C45.7533 18.3533 46.0133 18.1933 46.2133 18.02C46.4133 17.8333 46.5466 17.6933 46.6133 17.6C46.7333 17.4267 46.8266 17.3267 46.8933 17.3C46.9599 17.26 47.0666 17.24 47.2133 17.24H48.1733C48.3066 17.24 48.4133 17.28 48.4933 17.36C48.5866 17.4267 48.6266 17.5267 48.6133 17.66C48.5999 17.86 48.4933 18.1067 48.2933 18.4C48.0933 18.68 47.8066 18.96 47.4333 19.24C47.0599 19.52 46.6066 19.7533 46.0733 19.94C45.5399 20.1133 44.9266 20.2 44.2333 20.2ZM41.5133 14.04H46.9933V13.98C46.9933 13.38 46.8799 12.8467 46.6533 12.38C46.4399 11.9133 46.1266 11.5467 45.7133 11.28C45.2999 11 44.8066 10.86 44.2333 10.86C43.6599 10.86 43.1666 11 42.7533 11.28C42.3533 11.5467 42.0466 11.9133 41.8333 12.38C41.6199 12.8467 41.5133 13.38 41.5133 13.98V14.04ZM55.2861 20C54.5394 20 53.9328 19.86 53.4661 19.58C52.9994 19.2867 52.6594 18.88 52.4461 18.36C52.2328 17.8267 52.1261 17.2 52.1261 16.48V11.2H50.5661C50.4328 11.2 50.3194 11.16 50.2261 11.08C50.1461 10.9867 50.1061 10.8733 50.1061 10.74V10.06C50.1061 9.92667 50.1461 9.82 50.2261 9.74C50.3194 9.64667 50.4328 9.6 50.5661 9.6H52.1261V6.26C52.1261 6.12667 52.1661 6.02 52.2461 5.94C52.3394 5.84667 52.4528 5.8 52.5861 5.8H53.5261C53.6594 5.8 53.7661 5.84667 53.8461 5.94C53.9394 6.02 53.9861 6.12667 53.9861 6.26V9.6H56.4661C56.5994 9.6 56.7061 9.64667 56.7861 9.74C56.8794 9.82 56.9261 9.92667 56.9261 10.06V10.74C56.9261 10.8733 56.8794 10.9867 56.7861 11.08C56.7061 11.16 56.5994 11.2 56.4661 11.2H53.9861V16.34C53.9861 16.9667 54.0928 17.46 54.3061 17.82C54.5194 18.18 54.8994 18.36 55.4461 18.36H56.6661C56.7994 18.36 56.9061 18.4067 56.9861 18.5C57.0794 18.58 57.1261 18.6867 57.1261 18.82V19.54C57.1261 19.6733 57.0794 19.7867 56.9861 19.88C56.9061 19.96 56.7994 20 56.6661 20H55.2861ZM59.4586 20C59.3119 20 59.1919 19.9533 59.0986 19.86C59.0053 19.7667 58.9586 19.6467 58.9586 19.5V6.5C58.9586 6.35333 59.0053 6.23333 59.0986 6.14C59.1919 6.04667 59.3119 6 59.4586 6H65.0586C66.1653 6 67.1253 6.17333 67.9386 6.52C68.7653 6.85333 69.4053 7.36 69.8586 8.04C70.3253 8.72 70.5586 9.58 70.5586 10.62C70.5586 11.6467 70.3253 12.4933 69.8586 13.16C69.4053 13.8267 68.7653 14.32 67.9386 14.64C67.1253 14.96 66.1653 15.12 65.0586 15.12H62.6786V19.5C62.6786 19.6467 62.6253 19.7667 62.5186 19.86C62.4253 19.9533 62.3053 20 62.1586 20H59.4586ZM62.6186 12.36H64.9586C65.5319 12.36 65.9853 12.2133 66.3186 11.92C66.6653 11.6267 66.8386 11.18 66.8386 10.58C66.8386 10.0733 66.6919 9.64667 66.3986 9.3C66.1053 8.95333 65.6253 8.78 64.9586 8.78H62.6186V12.36ZM72.7542 20C72.6076 20 72.4876 19.9533 72.3942 19.86C72.3009 19.7667 72.2542 19.6467 72.2542 19.5V10.1C72.2542 9.96667 72.3009 9.85333 72.3942 9.76C72.4876 9.65333 72.6076 9.6 72.7542 9.6H75.0542C75.2009 9.6 75.3209 9.65333 75.4142 9.76C75.5076 9.85333 75.5542 9.96667 75.5542 10.1V10.9C75.9142 10.4867 76.3409 10.1667 76.8342 9.94C77.3409 9.71333 77.9076 9.6 78.5342 9.6H79.4142C79.5476 9.6 79.6609 9.64667 79.7542 9.74C79.8609 9.83333 79.9142 9.95333 79.9142 10.1V12.16C79.9142 12.2933 79.8609 12.4133 79.7542 12.52C79.6609 12.6133 79.5476 12.66 79.4142 12.66H77.4742C76.9276 12.66 76.5009 12.8133 76.1942 13.12C75.9009 13.4133 75.7542 13.8333 75.7542 14.38V19.5C75.7542 19.6467 75.7009 19.7667 75.5942 19.86C75.5009 19.9533 75.3809 20 75.2342 20H72.7542ZM86.1781 20.2C85.0581 20.2 84.1115 20.02 83.3381 19.66C82.5781 19.3 81.9915 18.7867 81.5781 18.12C81.1781 17.44 80.9515 16.6333 80.8981 15.7C80.8848 15.4333 80.8781 15.1333 80.8781 14.8C80.8781 14.4533 80.8848 14.1533 80.8981 13.9C80.9515 12.9533 81.1915 12.1467 81.6181 11.48C82.0448 10.8133 82.6381 10.3 83.3981 9.94C84.1715 9.58 85.0981 9.4 86.1781 9.4C87.2715 9.4 88.1981 9.58 88.9581 9.94C89.7315 10.3 90.3315 10.8133 90.7581 11.48C91.1848 12.1467 91.4248 12.9533 91.4781 13.9C91.4915 14.1533 91.4981 14.4533 91.4981 14.8C91.4981 15.1333 91.4915 15.4333 91.4781 15.7C91.4248 16.6333 91.1915 17.44 90.7781 18.12C90.3781 18.7867 89.7915 19.3 89.0181 19.66C88.2581 20.02 87.3115 20.2 86.1781 20.2ZM86.1781 17.76C86.7781 17.76 87.2115 17.58 87.4781 17.22C87.7581 16.86 87.9181 16.32 87.9581 15.6C87.9715 15.4 87.9781 15.1333 87.9781 14.8C87.9781 14.4667 87.9715 14.2 87.9581 14C87.9181 13.2933 87.7581 12.76 87.4781 12.4C87.2115 12.0267 86.7781 11.84 86.1781 11.84C85.5915 11.84 85.1581 12.0267 84.8781 12.4C84.5981 12.76 84.4448 13.2933 84.4181 14C84.4048 14.2 84.3981 14.4667 84.3981 14.8C84.3981 15.1333 84.4048 15.4 84.4181 15.6C84.4448 16.32 84.5981 16.86 84.8781 17.22C85.1581 17.58 85.5915 17.76 86.1781 17.76ZM95.0475 20C94.9142 20 94.7942 19.9533 94.6875 19.86C94.5942 19.7667 94.5475 19.6467 94.5475 19.5V12.22H93.0275C92.8808 12.22 92.7608 12.1733 92.6675 12.08C92.5742 11.9867 92.5275 11.8667 92.5275 11.72V10.1C92.5275 9.95333 92.5742 9.83333 92.6675 9.74C92.7608 9.64667 92.8808 9.6 93.0275 9.6H94.5475V8.96C94.5475 8.05333 94.7208 7.32667 95.0675 6.78C95.4275 6.22 95.9342 5.82 96.5875 5.58C97.2408 5.32667 98.0208 5.2 98.9275 5.2H104.048C104.181 5.2 104.294 5.24667 104.388 5.34C104.494 5.43333 104.548 5.55333 104.548 5.7V7.32C104.548 7.46667 104.494 7.58667 104.388 7.68C104.294 7.77333 104.181 7.82 104.048 7.82H99.0875C98.6342 7.82 98.3142 7.92667 98.1275 8.14C97.9542 8.35333 97.8675 8.66 97.8675 9.06V9.6H104.048C104.181 9.6 104.294 9.64667 104.388 9.74C104.494 9.83333 104.548 9.95333 104.548 10.1V19.5C104.548 19.6467 104.494 19.7667 104.388 19.86C104.294 19.9533 104.181 20 104.048 20H101.728C101.581 20 101.461 19.9533 101.368 19.86C101.274 19.7667 101.228 19.6467 101.228 19.5V12.22H97.8675V19.5C97.8675 19.6467 97.8208 19.7667 97.7275 19.86C97.6342 19.9533 97.5142 20 97.3675 20H95.0475ZM107.383 20C107.236 20 107.116 19.9533 107.023 19.86C106.93 19.7667 106.883 19.6467 106.883 19.5V6.3C106.883 6.15333 106.93 6.03333 107.023 5.94C107.116 5.84667 107.236 5.8 107.383 5.8H109.743C109.89 5.8 110.01 5.84667 110.103 5.94C110.196 6.03333 110.243 6.15333 110.243 6.3V19.5C110.243 19.6467 110.196 19.7667 110.103 19.86C110.01 19.9533 109.89 20 109.743 20H107.383ZM117.406 20.2C115.832 20.2 114.579 19.7733 113.646 18.92C112.712 18.0667 112.226 16.8 112.186 15.12C112.186 15.0267 112.186 14.9067 112.186 14.76C112.186 14.6133 112.186 14.5 112.186 14.42C112.226 13.3667 112.459 12.4667 112.886 11.72C113.326 10.96 113.926 10.3867 114.686 10C115.459 9.6 116.359 9.4 117.386 9.4C118.559 9.4 119.526 9.63333 120.286 10.1C121.059 10.5667 121.639 11.2 122.026 12C122.412 12.8 122.606 13.7133 122.606 14.74V15.22C122.606 15.3667 122.552 15.4867 122.446 15.58C122.352 15.6733 122.239 15.72 122.106 15.72H115.706C115.706 15.7333 115.706 15.7533 115.706 15.78C115.706 15.8067 115.706 15.8333 115.706 15.86C115.719 16.2467 115.786 16.6 115.906 16.92C116.026 17.24 116.212 17.4933 116.466 17.68C116.719 17.8667 117.026 17.96 117.386 17.96C117.652 17.96 117.872 17.92 118.046 17.84C118.232 17.7467 118.386 17.6467 118.506 17.54C118.626 17.42 118.719 17.32 118.786 17.24C118.906 17.1067 118.999 17.0267 119.066 17C119.146 16.96 119.266 16.94 119.426 16.94H121.906C122.039 16.94 122.146 16.98 122.226 17.06C122.319 17.1267 122.359 17.2267 122.346 17.36C122.332 17.5867 122.219 17.86 122.006 18.18C121.792 18.5 121.479 18.82 121.066 19.14C120.666 19.4467 120.159 19.7 119.546 19.9C118.932 20.1 118.219 20.2 117.406 20.2ZM115.706 13.74H119.086V13.7C119.086 13.2733 119.019 12.9 118.886 12.58C118.766 12.26 118.572 12.0133 118.306 11.84C118.052 11.6667 117.746 11.58 117.386 11.58C117.026 11.58 116.719 11.6667 116.466 11.84C116.226 12.0133 116.039 12.26 115.906 12.58C115.772 12.9 115.706 13.2733 115.706 13.7V13.74Z" fill="black"/>
<path d="M12 13C12 12.2044 11.6839 11.4413 11.1213 10.8787C10.5587 10.3161 9.79565 10 9 10C8.20435 10 7.44129 10.3161 6.87868 10.8787C6.31607 11.4413 6 12.2044 6 13" stroke="#006AD4" stroke-width="2" stroke-linecap="round" stroke-linejoin="round"/>
<path d="M1 19.5V4.5C1 3.83696 1.26339 3.20107 1.73223 2.73223C2.20107 2.26339 2.83696 2 3.5 2H16C16.2652 2 16.5196 2.10536 16.7071 2.29289C16.8946 2.48043 17 2.73478 17 3V21C17 21.2652 16.8946 21.5196 16.7071 21.7071C16.5196 21.8946 16.2652 22 16 22H3.5C2.83696 22 2.20107 21.7366 1.73223 21.2678C1.26339 20.7989 1 20.163 1 19.5ZM1 19.5C1 18.837 1.26339 18.2011 1.73223 17.7322C2.20107 17.2634 2.83696 17 3.5 17H17" stroke="#006AD4" stroke-width="2" stroke-linecap="round" stroke-linejoin="round"/>
<path d="M9 10C10.1046 10 11 9.10457 11 8C11 6.89543 10.1046 6 9 6C7.89543 6 7 6.89543 7 8C7 9.10457 7.89543 10 9 10Z" stroke="#006AD4" stroke-width="2" stroke-linecap="round" stroke-linejoin="round"/>
</g>
<defs>
<clipPath id="clip0_95_9">
<rect width="124" height="24" fill="white"/>
</clipPath>
</defs>
</svg>
